<?xml version="1.0" encoding="UTF-8"?>
<svg version="1.1" xmlns="http://www.w3.org/2000/svg" width="675" height="687">
<path d="M0 0 C8.32180454 6.70461175 14.7824439 14.63658879 16.875 25.3125 C17.89748723 38.62159609 14.92333156 47.80389647 6.875 58.3125 C5.11710186 60.28359004 3.34300791 62.21734715 1.48828125 64.09765625 C-3.35017547 70.74028327 -3.57651293 77.64805153 -3.6015625 85.5625 C-3.62445595 87.18246635 -3.62445595 87.18246635 -3.64781189 88.8351593 C-3.69473445 92.32758338 -3.72229238 95.81987584 -3.75 99.3125 C-3.79424395 102.90518858 -3.84351907 106.49778711 -3.89289856 110.09040833 C-3.92517768 112.47107245 -3.95577271 114.85176002 -3.98466492 117.23246765 C-4.10584625 127.03444852 -4.3527346 136.82821472 -4.6875 146.625 C-4.73194669 147.95768185 -4.77638079 149.29036413 -4.82080078 150.62304688 C-4.91913254 153.5196538 -5.02010042 156.41612484 -5.125 159.3125 C-4.01253906 159.27382812 -2.90007812 159.23515625 -1.75390625 159.1953125 C3.29078294 159.19753336 8.01863152 160.14219411 12.9375 161.1875 C13.79666016 161.36152344 14.65582031 161.53554687 15.54101562 161.71484375 C19.32387709 162.49511311 23.04776686 163.32783243 26.74609375 164.4453125 C29.97630605 165.49055691 29.97630605 165.49055691 33.875 165.3125 C34.59816406 163.61480469 34.59816406 163.61480469 35.3359375 161.8828125 C35.97370803 160.40093392 36.61174261 158.91916895 37.25 157.4375 C37.56710937 156.69113281 37.88421875 155.94476563 38.2109375 155.17578125 C38.5203125 154.46035156 38.8296875 153.74492187 39.1484375 153.0078125 C39.43122559 152.34797363 39.71401367 151.68813477 40.00537109 151.00830078 C40.875 149.3125 40.875 149.3125 42.875 147.3125 C43.52722109 145.42625818 43.52722109 145.42625818 44.0625 143.1875 C47.48317769 131.44487508 51.97545621 119.11823165 61.875 111.3125 C67.19736111 109.06420144 71.32967128 108.94856816 76.875 110.3125 C81.67685929 112.7587302 84.59846185 115.40918706 86.875 120.3125 C89.84176515 136.62970833 78.24499685 154.3972399 71.63818359 168.8371582 C71.18060921 169.83773254 71.18060921 169.83773254 70.71379089 170.85852051 C69.8704406 172.69986207 69.02452767 174.54002928 68.1784668 176.38012695 C66.83005063 179.2867181 66.83005063 179.2867181 65.875 182.3125 C67.2671875 182.1578125 67.2671875 182.1578125 68.6875 182 C70.2653125 182.1546875 70.2653125 182.1546875 71.875 182.3125 C72.50148438 183.40884766 72.50148438 183.40884766 73.140625 184.52734375 C75.42952407 188.20298573 78.19542271 189.91796131 81.8125 192.1875 C82.43318359 192.60257813 83.05386719 193.01765625 83.69335938 193.4453125 C87.1061983 195.66270612 87.1061983 195.66270612 91.03515625 196.3046875 C96.23542802 193.50029466 100.61724165 188.90124738 104.25 184.3125 C104.78625 183.6525 105.3225 182.9925 105.875 182.3125 C106.865 182.3125 107.855 182.3125 108.875 182.3125 C108.96007812 181.74660156 109.04515625 181.18070313 109.1328125 180.59765625 C112.38043706 170.59839115 126.22372029 160.30501279 134.125 153.6875 C144.869172 144.30557476 148.89347601 132.89680967 150.875 119.0625 C152.56871892 107.80155799 157.23510853 98.80573921 165.875 91.3125 C176.77730292 83.93200842 187.65044867 81.75041577 200.6875 83.7421875 C211.07196716 86.37075575 218.04660022 93.6567735 223.875 102.3125 C226.16524041 106.22807231 226.875 107.73997881 226.875 112.3125 C227.535 112.3125 228.195 112.3125 228.875 112.3125 C229.42901576 126.16289411 229.29223259 138.15239259 219.86328125 149.27734375 C212.68936256 156.62039215 205.30278027 161.49463488 194.875 162.3125 C194.215 161.9825 193.555 161.6525 192.875 161.3125 C192.875 161.9725 192.875 162.6325 192.875 163.3125 C191.82441406 163.38726562 190.77382813 163.46203125 189.69140625 163.5390625 C174.61071756 164.84597163 166.8647933 171.39508304 156.875 182.3125 C156.545 182.9725 156.215 183.6325 155.875 184.3125 C154.885 184.3125 153.895 184.3125 152.875 184.3125 C152.76750427 184.90797134 152.66000854 185.50344269 152.54925537 186.11695862 C151.78540272 188.60425079 150.92486764 189.62695382 149.08691406 191.44116211 C148.50250549 192.02534409 147.91809692 192.60952606 147.315979 193.21141052 C146.68061218 193.83129349 146.04524536 194.45117645 145.390625 195.08984375 C144.73801697 195.73820694 144.08540894 196.38657013 143.4130249 197.05458069 C141.32395496 199.12686964 139.22472266 201.18851095 137.125 203.25 C135.72587548 204.63407147 134.32742995 206.01882969 132.9296875 207.40429688 C130.35087097 209.95863826 127.76816951 212.50890489 125.18066406 215.05444336 C122.39782718 217.79309634 119.63141812 220.54726813 116.875 223.3125 C119.37554538 228.02506629 121.99705581 231.79304798 125.703125 235.63671875 C126.875 237.3125 126.875 237.3125 126.875 241.3125 C127.865 241.6425 128.855 241.9725 129.875 242.3125 C131.46465571 244.52951147 132.59827486 246.89112473 133.875 249.3125 C135.41702616 248.85537762 136.95860214 248.39673653 138.5 247.9375 C139.41394531 247.66550781 140.32789063 247.39351562 141.26953125 247.11328125 C143.25871519 246.50191287 145.22855844 245.82726207 147.1875 245.125 C149.90217529 244.30428422 152.0574969 244.14676452 154.875 244.3125 C155.205 243.3225 155.535 242.3325 155.875 241.3125 C157.855 241.3125 159.835 241.3125 161.875 241.3125 C162.205 240.3225 162.535 239.3325 162.875 238.3125 C167.20895595 236.13656757 172.01880516 234.84254566 176.875 235.3125 C176.875 234.6525 176.875 233.9925 176.875 233.3125 C178.855 233.3125 180.835 233.3125 182.875 233.3125 C182.875 232.6525 182.875 231.9925 182.875 231.3125 C185.845 231.3125 188.815 231.3125 191.875 231.3125 C191.875 231.9725 191.875 232.6325 191.875 233.3125 C192.57625 233.333125 193.2775 233.35375 194 233.375 C199.02158957 235.01247486 201.60391769 239.26771541 204.3125 243.625 C205.36369248 248.64736408 205.12132562 253.54962772 202.9921875 258.26953125 C195.74782822 268.36151603 177.26801133 272.69581971 166 277.1875 C163.82777335 278.05561985 161.6560687 278.92497418 159.48556519 279.7973938 C158.15225097 280.33313263 156.81791794 280.86634466 155.48245239 281.396698 C152.44986009 282.4772098 152.44986009 282.4772098 149.875 284.3125 C150.20277203 285.64721135 150.53728433 286.98026991 150.875 288.3125 C150.94048492 289.89461573 150.96078381 291.47920081 150.9375 293.0625 C150.92847656 293.86171875 150.91945313 294.6609375 150.91015625 295.484375 C150.89275391 296.38929688 150.89275391 296.38929688 150.875 297.3125 C151.535 297.3125 152.195 297.3125 152.875 297.3125 C155.8723792 303.3072584 154.98063703 311.7630042 154.875 318.3125 C155.42212646 318.2427597 155.96925293 318.17301941 156.53295898 318.10116577 C163.64251258 317.28531684 170.69789148 317.14987536 177.84957886 317.11326981 C179.98712749 317.10128423 182.12449123 317.08178969 184.26196289 317.06015015 C190.33180501 316.99916048 196.40161734 316.94454156 202.47167969 316.91113281 C206.20517461 316.8900483 209.93831165 316.85465359 213.67160034 316.81037521 C215.08116419 316.79634297 216.49079109 316.7875221 217.90042114 316.78432083 C230.39304113 316.75292304 239.21777511 315.40262957 248.875 307.3125 C259.25875145 298.91844943 267.24793158 296.00807594 280.875 297.3125 C291.27734538 299.01035407 299.44699005 304.01442609 306.875 311.3125 C309.875 316.44639121 309.875 316.44639121 309.875 319.3125 C310.865 319.3125 311.855 319.3125 312.875 319.3125 C315.98920736 330.21222576 317.33093717 343.46758814 312.4375 354 C306.26396172 364.20288728 297.53824304 371.52956426 285.94555664 374.86816406 C277.3001355 376.7234484 266.76371638 376.34078071 258.875 372.3125 C258.875 371.6525 258.875 370.9925 258.875 370.3125 C257.988125 370.044375 257.10125 369.77625 256.1875 369.5 C253.0490522 368.37489607 250.57280595 367.26091541 247.875 365.3125 C247.59785156 364.67441406 247.32070313 364.03632813 247.03515625 363.37890625 C245.49517584 360.63597818 243.88017565 359.9641352 241.0625 358.625 C240.21042969 358.20863281 239.35835937 357.79226563 238.48046875 357.36328125 C233.83815563 355.49104402 229.49338256 355.17921202 224.51513672 355.12304688 C223.2496701 355.10632935 221.98420349 355.08961182 220.6803894 355.0723877 C220.00865566 355.06570572 219.33692192 355.05902374 218.64483261 355.05213928 C216.52422355 355.03094554 214.40375678 355.00393155 212.28323364 354.97546387 C207.77221216 354.91595908 203.26112107 354.86381053 198.75 354.8125 C193.53853189 354.75291884 188.32713221 354.69021464 183.11578751 354.62062073 C181.04497791 354.59441798 178.97415997 354.57337424 176.90328979 354.5526123 C169.51247234 354.45641317 162.22263414 354.13106996 154.875 353.3125 C154.86364014 353.95638168 154.85228027 354.60026337 154.84057617 355.26365662 C154.45803613 375.31829159 154.45803613 375.31829159 149.875 384.3125 C149.52404717 385.64130435 149.18835456 386.97433043 148.875 388.3125 C155.27016838 391.36203166 161.75512491 394.09601397 168.359375 396.65234375 C169.48490784 397.09049911 169.48490784 397.09049911 170.63317871 397.5375061 C173.75161506 398.75076733 176.87028963 399.96273167 179.99755859 401.15307617 C182.31090512 402.03573117 184.61663478 402.93626391 186.921875 403.83984375 C187.61682068 404.09942368 188.31176636 404.3590036 189.027771 404.62644958 C195.42084842 407.16272933 200.4025009 410.7000016 203.8125 416.75 C205.45376511 422.25306536 205.57046746 426.26909582 203.1875 431.5 C200.79913224 435.84783849 197.91171497 438.21157299 193.5625 440.5625 C182.20463457 443.73213686 170.36805901 438.3591666 160.44140625 433.10546875 C155.62672984 430.68494688 150.70162442 428.56069716 145.75 426.4375 C144.3431897 425.82902222 144.3431897 425.82902222 142.90795898 425.20825195 C142.02825439 424.83273193 141.1485498 424.45721191 140.2421875 424.0703125 C139.44925293 423.7314502 138.65631836 423.39258789 137.83935547 423.04345703 C135.91191886 422.19625067 135.91191886 422.19625067 133.875 422.3125 C132.76311864 424.06145933 131.73693546 425.8651122 130.75 427.6875 C127.78985332 432.94377723 124.50575365 437.49368781 120.57421875 442.05859375 C118.81168171 444.39648771 117.83210276 446.55779307 116.875 449.3125 C122.40596187 455.85059658 128.33406087 461.95102113 134.375 468.015625 C134.86734131 468.51079369 135.35968262 469.00596237 135.86694336 469.51613617 C138.46591169 472.12997205 141.06764475 474.74101636 143.671875 477.34960938 C146.34481332 480.02805512 149.00832388 482.71567715 151.6697998 485.40550613 C153.73577252 487.49016657 155.8084853 489.56802658 157.88305664 491.64412689 C158.86785047 492.6319272 159.85016736 493.62220391 160.82983398 494.61508942 C169.93692223 504.03265206 169.93692223 504.03265206 181.984375 508.4375 C182.89872314 508.58421143 183.81307129 508.73092285 184.75512695 508.88208008 C186.17571411 509.09513794 186.17571411 509.09513794 187.625 509.3125 C202.57763941 511.82407135 213.53585126 515.22018356 223.25 527.5 C228.67500887 535.37815033 231.06736153 544.77360778 229.875 554.3125 C227.5711377 566.74264079 221.23160625 575.86575241 211.875 584.3125 C202.79098294 589.62151438 191.73059694 590.70915828 181.51953125 588.62890625 C174.56529665 586.70028653 169.92033365 584.39787598 164.875 579.3125 C163.864375 578.57 162.85375 577.8275 161.8125 577.0625 C154.96419572 571.35251976 151.48661877 562.64190665 150.64599609 553.94262695 C150.53986928 552.28057585 150.44004683 550.61811147 150.34619141 548.95532227 C149.81219667 538.28233241 149.81219667 538.28233241 144.16186523 529.56860352 C142.06975823 527.50463845 140.07969944 525.37387207 138.10476685 523.19836426 C130.71156045 515.06021591 122.98481777 507.26930683 115.20019531 499.50732422 C112.97863542 497.29118757 110.76255522 495.06966977 108.546875 492.84765625 C107.11750849 491.41894962 105.6878323 489.99055273 104.2578125 488.5625 C103.27797897 487.57963013 103.27797897 487.57963013 102.27835083 486.5769043 C98.62399867 482.94108652 94.88849295 479.54861511 90.875 476.3125 C86.25032969 477.86281562 82.74951182 480.38137105 78.875 483.25 C74.96249409 486.12167902 71.09189302 488.89257844 66.875 491.3125 C68.80034023 497.4888795 71.11608794 503.32894407 73.8515625 509.1875 C74.61246029 510.84873805 75.37286211 512.51020334 76.1328125 514.171875 C77.31675822 516.74806228 78.50454196 519.32225599 79.70117188 521.89257812 C80.86706139 524.40239939 82.01656928 526.91922537 83.1640625 529.4375 C83.5213443 530.19401855 83.8786261 530.95053711 84.24673462 531.72998047 C87.15449501 538.16005762 88.86461726 544.18739285 86.6875 551.0625 C83.2877629 557.15858031 80.70533745 560.18501784 73.875 562.3125 C69.24143603 562.97443771 65.92527335 562.82733988 61.6875 560.75 C57.54783665 557.16229177 53.63239263 553.58467788 51.875 548.3125 C50.885 547.9825 49.895 547.6525 48.875 547.3125 C48.545 546.3225 48.215 545.3325 47.875 544.3125 C48.535 544.3125 49.195 544.3125 49.875 544.3125 C49.215 543.3225 48.555 542.3325 47.875 541.3125 C47.57335937 540.39984375 47.27171875 539.4871875 46.9609375 538.546875 C45.77309202 535.00897553 44.21621168 531.87501337 42.5 528.5625 C39.96073861 523.59978702 37.66709923 518.61643734 35.69921875 513.3984375 C34.86979598 511.29932964 33.89555771 509.32419394 32.875 507.3125 C32.27026855 507.489021 31.66553711 507.66554199 31.04248047 507.84741211 C28.27933503 508.65180856 25.51469453 509.45094477 22.75 510.25 C21.79867188 510.52779297 20.84734375 510.80558594 19.8671875 511.09179688 C11.30968754 513.55802082 3.78156376 514.4551318 -5.125 514.3125 C-5.09994385 514.94897461 -5.0748877 515.58544922 -5.04907227 516.24121094 C-4.92344977 519.51480226 -4.80477792 522.78859873 -4.6875 526.0625 C-4.61764893 527.98376709 -4.61764893 527.98376709 -4.54638672 529.94384766 C-4.22835169 539.1624013 -4.05584945 548.37828823 -3.94140625 557.6015625 C-3.90897312 559.94433872 -3.87633849 562.28711216 -3.84350586 564.62988281 C-3.79434271 568.1505361 -3.75013412 571.67088681 -3.72171021 575.19177246 C-3.69445195 578.53178206 -3.64950486 581.87116957 -3.6015625 585.2109375 C-3.59834488 586.21202545 -3.59512726 587.2131134 -3.59181213 588.24453735 C-3.46870218 595.24914669 -2.67820215 601.17542605 1.890625 606.7890625 C2.62796875 607.49804688 3.3653125 608.20703125 4.125 608.9375 C13.75036062 619.06614745 17.66452533 630.96648745 17.34765625 644.765625 C16.72886723 653.94465209 11.65091267 662.76638981 4.83984375 668.8515625 C-2.32909817 674.18194874 -8.07279624 677.4832963 -17.125 677.3125 C-17.125 677.9725 -17.125 678.6325 -17.125 679.3125 C-20.90280902 680.27400013 -23.68648141 680.25942562 -27.5 679.5 C-28.45261719 679.31050781 -29.40523438 679.12101563 -30.38671875 678.92578125 C-33.68619463 678.18681162 -36.89694129 677.31678493 -40.125 676.3125 C-40.125 675.6525 -40.125 674.9925 -40.125 674.3125 C-40.95 674.126875 -41.775 673.94125 -42.625 673.75 C-50.47778756 670.52474797 -55.10076633 664.5500001 -59.125 657.3125 C-59.7025 656.425625 -60.28 655.53875 -60.875 654.625 C-63.54199458 649.69106003 -63.25118251 644.48159429 -63.1875 639 C-63.18073242 637.88915039 -63.18073242 637.88915039 -63.17382812 636.75585938 C-63.16212175 634.94137101 -63.14418898 633.12692466 -63.125 631.3125 C-62.465 631.3125 -61.805 631.3125 -61.125 631.3125 C-60.815625 629.3634375 -60.815625 629.3634375 -60.5 627.375 C-58.84515316 619.99183719 -54.43869405 614.68669431 -49.4375 609.1875 C-43.13988664 602.19478582 -41.99311493 594.68914538 -41.91967773 585.49291992 C-41.90977814 584.72165771 -41.89987854 583.95039551 -41.88967896 583.15576172 C-41.85820802 580.6181948 -41.83336378 578.08060918 -41.80859375 575.54296875 C-41.78801177 573.77891059 -41.76701497 572.01485722 -41.74562073 570.25080872 C-41.69052855 565.61650484 -41.64106277 560.98215741 -41.59277344 556.34777832 C-41.54246436 551.6152765 -41.48682747 546.88283763 -41.43164062 542.15039062 C-41.32421635 532.87114758 -41.22273667 523.59184978 -41.125 514.3125 C-42.44584846 514.21733849 -42.44584846 514.21733849 -43.79338074 514.12025452 C-44.95493179 514.03424484 -46.11648285 513.94823517 -47.31323242 513.85961914 C-49.03626839 513.73352013 -49.03626839 513.73352013 -50.79411316 513.60487366 C-55.06501561 513.2299887 -59.23051926 512.55740034 -63.4375 511.75 C-64.18966797 511.61142578 -64.94183594 511.47285156 -65.71679688 511.33007812 C-67.5206493 510.99688245 -69.3230115 510.65563314 -71.125 510.3125 C-71.455 509.3225 -71.785 508.3325 -72.125 507.3125 C-74.435 507.3125 -76.745 507.3125 -79.125 507.3125 C-79.455 508.6325 -79.785 509.9525 -80.125 511.3125 C-80.785 511.3125 -81.445 511.3125 -82.125 511.3125 C-82.23980713 512.18124756 -82.35461426 513.04999512 -82.47290039 513.94506836 C-83.13007093 517.3386862 -84.14300447 520.04579536 -85.55859375 523.19140625 C-86.04263672 524.27744141 -86.52667969 525.36347656 -87.02539062 526.48242188 C-87.53263672 527.60197266 -88.03988281 528.72152344 -88.5625 529.875 C-89.56180266 532.10519788 -90.56052237 534.33565707 -91.55859375 536.56640625 C-92.00259521 537.54939697 -92.44659668 538.5323877 -92.90405273 539.54516602 C-94.03736981 542.11388209 -95.10002298 544.69894272 -96.125 547.3125 C-96.785 547.3125 -97.445 547.3125 -98.125 547.3125 C-98.186875 548.3334375 -98.186875 548.3334375 -98.25 549.375 C-99.81717444 554.63622849 -103.62938853 558.31542569 -108.125 561.3125 C-113.29203646 562.74778791 -118.19862705 563.04452172 -123.25 561.125 C-127.46360859 558.46859459 -130.37095614 555.4435658 -133.125 551.3125 C-133.3203125 547.95703125 -133.3203125 547.95703125 -133.25 544.125 C-133.23195312 542.85269531 -133.21390625 541.58039062 -133.1953125 540.26953125 C-133.17210937 539.29371094 -133.14890625 538.31789063 -133.125 537.3125 C-132.465 536.9825 -131.805 536.6525 -131.125 536.3125 C-130.19814193 534.42990978 -129.35609427 532.50502926 -128.5625 530.5625 C-128.12808594 529.51578125 -127.69367188 528.4690625 -127.24609375 527.390625 C-126.06099424 524.39870977 -126.06099424 524.39870977 -125.59765625 521.484375 C-125.44167969 520.76765625 -125.28570312 520.0509375 -125.125 519.3125 C-124.465 518.9825 -123.805 518.6525 -123.125 518.3125 C-122.16125716 516.42701342 -122.16125716 516.42701342 -121.3203125 514.12109375 C-120.98386719 513.25806641 -120.64742187 512.39503906 -120.30078125 511.50585938 C-119.95402344 510.59642578 -119.60726562 509.68699219 -119.25 508.75 C-116.81978849 502.42498184 -114.25475139 496.32639448 -111.125 490.3125 C-112.43984375 489.92191406 -112.43984375 489.92191406 -113.78125 489.5234375 C-117.1054805 488.31956898 -119.67941669 486.87582925 -122.625 484.9375 C-123.57632813 484.32132812 -124.52765625 483.70515625 -125.5078125 483.0703125 C-127.55126541 481.69784412 -129.52373309 480.27678066 -131.5 478.8125 C-133.96183236 477.09198498 -133.96183236 477.09198498 -136.47167969 477.43470764 C-139.9238662 478.57678722 -141.62453641 480.29713028 -144.203125 482.85717773 C-144.6835022 483.32893936 -145.16387939 483.80070099 -145.65881348 484.28675842 C-147.24120511 485.84648576 -148.80844358 487.42047374 -150.375 488.99609375 C-151.47637825 490.09223302 -152.57827463 491.18785192 -153.68066406 492.28297424 C-155.99044393 494.58234622 -158.29258282 496.88905062 -160.58984375 499.20092773 C-163.51655645 502.14474329 -166.46297899 505.06786242 -169.41583252 507.9854269 C-171.69833918 510.24582215 -173.96886818 512.51796457 -176.23620605 514.79356575 C-177.31673413 515.87490749 -178.40105304 516.95247633 -179.48937988 518.02596855 C-188.99118246 527.4180827 -194.4138623 535.4376286 -195.6875 548.875 C-196.98638695 562.02743303 -202.26678194 573.50697954 -212.03125 582.671875 C-220.59721037 589.38400813 -228.38286089 591.24810566 -239.125 590.3125 C-239.125 589.6525 -239.125 588.9925 -239.125 588.3125 C-240.548125 588.43625 -240.548125 588.43625 -242 588.5625 C-248.95806017 588.5766424 -255.36736216 584.91102365 -261.125 581.3125 C-261.785 581.3125 -262.445 581.3125 -263.125 581.3125 C-263.77604167 579.61979167 -264.42708333 577.92708333 -265.078125 576.234375 C-266.06309702 574.18033978 -266.06309702 574.18033978 -268.03125 572.55859375 C-270.78143548 569.60830149 -272.01895904 566.35432925 -273.375 562.625 C-273.63877441 561.91472656 -273.90254883 561.20445312 -274.17431641 560.47265625 C-276.02403324 555.23079548 -276.72279483 550.89191842 -276.125 545.3125 C-275.465 545.3125 -274.805 545.3125 -274.125 545.3125 C-274.05023438 544.63445313 -273.97546875 543.95640625 -273.8984375 543.2578125 C-272.44043125 532.93741531 -268.33682441 525.41583534 -260.19921875 518.84375 C-252.79408053 513.37705662 -246.26257551 510.45094898 -236.97290039 509.68139648 C-218.54664435 508.13424898 -208.83130224 497.3863842 -196.81176758 484.40698242 C-192.3592497 479.59943527 -187.79514634 474.93611018 -183.12817383 470.33764648 C-180.43824231 467.67253237 -177.88436391 464.95170316 -175.4375 462.0625 C-171.73419298 457.69919767 -167.47227409 454.01901941 -163.125 450.3125 C-164.47182472 446.42320004 -166.19482553 443.79359367 -168.875 440.6875 C-179.125 428.23038321 -179.125 428.23038321 -179.125 422.3125 C-186.45080125 424.9888314 -193.74333159 427.71816561 -200.9453125 430.71484375 C-201.92806152 431.12355713 -202.91081055 431.53227051 -203.92333984 431.95336914 C-205.87158654 432.76795864 -207.81729776 433.58864233 -209.76025391 434.41577148 C-211.10869385 434.97953491 -211.10869385 434.97953491 -212.484375 435.5546875 C-213.68271973 436.06298096 -213.68271973 436.06298096 -214.90527344 436.58154297 C-217.125 437.3125 -217.125 437.3125 -221.125 437.3125 C-221.455 438.3025 -221.785 439.2925 -222.125 440.3125 C-227.39477735 442.28576465 -233.57796304 442.15666082 -238.859375 440.40625 C-244.05849732 438.00665508 -247.889327 435.80006099 -250.125 430.3125 C-250.91130289 424.1145831 -250.88136022 418.52293514 -247.125 413.3125 C-238.48335733 403.16199908 -222.44095026 399.15190086 -210.4375 394.375 C-209.49748642 393.9981456 -209.49748642 393.9981456 -208.53848267 393.61367798 C-206.73310777 392.89238456 -204.92325832 392.18232218 -203.11328125 391.47265625 C-202.05665283 391.05636963 -201.00002441 390.64008301 -199.91137695 390.21118164 C-197.125 389.3125 -197.125 389.3125 -193.125 389.3125 C-193.57875 388.28125 -194.0325 387.25 -194.5 386.1875 C-195.8900312 382.94409387 -197.05155077 379.67597426 -198.125 376.3125 C-198.46144531 375.43464844 -198.79789063 374.55679687 -199.14453125 373.65234375 C-200.30566586 369.69708444 -200.57215467 366.03535291 -200.75 361.9375 C-200.78867188 361.20144531 -200.82734375 360.46539062 -200.8671875 359.70703125 C-200.96057998 357.90922594 -201.0438371 356.11089892 -201.125 354.3125 C-210.92305772 354.28084427 -220.72030616 354.28739414 -230.51828957 354.34096622 C-235.06938867 354.36468714 -239.6197603 354.37589189 -244.17089844 354.35717773 C-248.57398522 354.33955481 -252.97577402 354.35652616 -257.37870407 354.39617729 C-259.04734442 354.40537751 -260.7160995 354.40270195 -262.38469315 354.38719368 C-277.54842141 354.26010071 -287.88134545 357.8019476 -299.1171875 368.51953125 C-302.16319003 371.23959965 -305.31959744 372.88733943 -309.125 374.3125 C-310.04925781 374.66634766 -310.04925781 374.66634766 -310.9921875 375.02734375 C-319.02921775 377.41968933 -330.59444837 378.08290382 -338.23144531 374.25732422 C-342.61622225 371.41677 -346.42597542 367.98436767 -350.125 364.3125 C-351.05054688 363.41273438 -351.97609375 362.51296875 -352.9296875 361.5859375 C-355.92317234 358.48592295 -357.125 356.63273216 -357.125 352.3125 C-358.115 351.9825 -359.105 351.6525 -360.125 351.3125 C-360.125 340.7525 -360.125 330.1925 -360.125 319.3125 C-358.805 318.9825 -357.485 318.6525 -356.125 318.3125 C-354.88185743 316.73662843 -354.88185743 316.73662843 -353.9375 314.75 C-349.12944013 306.535002 -341.36115742 300.65593829 -332.33984375 297.734375 C-322.82694598 295.92239447 -313.66913122 296.80473422 -305.125 301.3125 C-304.35671875 301.68632812 -303.5884375 302.06015625 -302.796875 302.4453125 C-297.98057213 304.91899186 -294.22178627 307.79217702 -290.4375 311.6640625 C-281.91538829 317.73894619 -271.43336986 316.77018406 -261.47265625 316.7890625 C-259.76393922 316.80339053 -258.05523367 316.81915076 -256.34654236 316.83627319 C-251.87415835 316.87791938 -247.40184554 316.90305818 -242.92932129 316.92376709 C-235.74686875 316.95974171 -228.5645912 317.02050487 -221.38232231 317.08225632 C-218.87508566 317.10135357 -216.36789622 317.11307321 -213.86061096 317.12368774 C-212.33293553 317.13389427 -210.8052611 317.14425171 -209.27758789 317.15478516 C-208.57891098 317.15582748 -207.88023407 317.15686981 -207.16038513 317.15794373 C-202.35186301 317.19906849 -202.35186301 317.19906849 -200.125 318.3125 C-200.125 313.6925 -200.125 309.0725 -200.125 304.3125 C-199.465 304.3125 -198.805 304.3125 -198.125 304.3125 C-198.455 302.3325 -198.785 300.3525 -199.125 298.3125 C-198.465 297.9825 -197.805 297.6525 -197.125 297.3125 C-196.81258629 294.76308627 -196.61196579 292.30888487 -196.5 289.75 C-196.46132812 289.03908203 -196.42265625 288.32816406 -196.3828125 287.59570312 C-196.28828217 285.83507575 -196.20554183 284.07382272 -196.125 282.3125 C-196.64674805 282.17642334 -197.16849609 282.04034668 -197.70605469 281.90014648 C-205.74338791 279.65442103 -213.37714963 276.51012301 -221.07617188 273.32446289 C-223.38076451 272.37261914 -225.6901026 271.43302583 -228 270.49414062 C-229.48467624 269.88354446 -230.96906175 269.2722408 -232.453125 268.66015625 C-233.13449524 268.38397964 -233.81586548 268.10780304 -234.5178833 267.82325745 C-240.25690189 265.42920491 -245.77486219 262.77851431 -249.125 257.3125 C-250.89584301 251.99997098 -251.04748298 245.84932819 -249.125 240.5625 C-248.465 239.82 -247.805 239.0775 -247.125 238.3125 C-246.5990625 237.70277344 -246.073125 237.09304687 -245.53125 236.46484375 C-242.07567683 232.90305419 -239.22398723 230.80663545 -234.1875 230.5 C-222.45335473 231.28336436 -210.53087174 237.233176 -200.125 242.3125 C-200.125 242.9725 -200.125 243.6325 -200.125 244.3125 C-198.63806641 244.46525391 -198.63806641 244.46525391 -197.12109375 244.62109375 C-192.85628566 245.23035205 -189.13661549 246.70466754 -185.1875 248.375 C-184.50365234 248.65666016 -183.81980469 248.93832031 -183.11523438 249.22851562 C-181.44886054 249.9160405 -179.78649273 250.61326175 -178.125 251.3125 C-178.03605469 250.61769531 -177.94710937 249.92289062 -177.85546875 249.20703125 C-176.95671553 245.64566155 -175.39143517 243.10768737 -173.4375 240 C-173.08244385 239.42894531 -172.7273877 238.85789063 -172.36157227 238.26953125 C-169.86081235 234.30153167 -167.14546028 230.62159747 -164.05859375 227.09375 C-162.68314996 224.46947231 -163.25808349 223.1137904 -164.125 220.3125 C-166.02779038 217.81813006 -166.02779038 217.81813006 -168.53369141 215.41796875 C-169.21930145 214.72666367 -169.21930145 214.72666367 -169.91876221 214.02139282 C-171.42844017 212.50432237 -172.95201176 211.00211209 -174.4765625 209.5 C-175.53526558 208.44368347 -176.59322783 207.38662397 -177.65048218 206.32885742 C-179.86877247 204.11369356 -182.09361066 201.90540131 -184.32373047 199.70214844 C-187.16831524 196.89141811 -189.99968273 194.06782799 -192.82662392 191.23936462 C-195.01205975 189.0544756 -197.20269324 186.87486087 -199.39506149 184.69692993 C-200.43991869 183.6583961 -201.48360499 182.61868277 -202.52605057 181.57772827 C-211.84108172 171.34334158 -211.84108172 171.34334158 -224.125 166.3125 C-224.125 165.6525 -224.125 164.9925 -224.125 164.3125 C-225.84783203 164.18294922 -225.84783203 164.18294922 -227.60546875 164.05078125 C-241.59732478 162.84914729 -253.54425704 160.16853454 -264.125 150.3125 C-264.77339844 149.74015625 -265.42179687 149.1678125 -266.08984375 148.578125 C-273.42736711 141.31816531 -275.47939243 130.43568226 -276.1640625 120.41015625 C-276.10771549 117.38432176 -275.30634774 115.0886672 -274.125 112.3125 C-273.6405331 110.7724907 -273.16174769 109.23068694 -272.6875 107.6875 C-271.60531119 104.44639918 -270.58949815 101.77699815 -268.125 99.3125 C-267.465 99.3125 -266.805 99.3125 -266.125 99.3125 C-265.86847656 98.7246875 -265.61195313 98.136875 -265.34765625 97.53125 C-261.60816989 90.74521725 -254.26444957 86.69658908 -247.125 84.3125 C-237.67173058 82.02541869 -227.11398164 82.54828972 -218.125 86.3125 C-214.08520804 88.95816768 -210.59669162 91.96459642 -207.125 95.3125 C-206.50496094 95.90417969 -205.88492188 96.49585937 -205.24609375 97.10546875 C-198.26225734 104.47437885 -196.90697979 113.08458866 -195.6875 122.8125 C-193.31685097 141.25105923 -182.95192768 150.68195113 -170.05859375 163.40625 C-168.65412101 164.80131636 -167.24965383 166.19638838 -165.8455286 167.5918045 C-162.42655802 170.98800444 -159.00187597 174.3784299 -155.57495117 177.76660156 C-153.63272508 179.68728509 -151.69314903 181.6105743 -149.75636292 183.53674316 C-147.94103794 185.34170185 -146.12159523 187.14253024 -144.29771423 188.93884277 C-143.0799807 190.15150818 -143.0799807 190.15150818 -141.83764648 191.38867188 C-141.11866684 192.10019409 -140.39968719 192.81171631 -139.65892029 193.5447998 C-138.125 195.3125 -138.125 195.3125 -138.125 197.3125 C-132.43545303 195.1201975 -127.7684954 192.21502963 -122.8125 188.6875 C-121.40042543 187.69433664 -119.98769604 186.70210348 -118.57421875 185.7109375 C-117.95893311 185.27442871 -117.34364746 184.83791992 -116.7097168 184.38818359 C-115.125 183.3125 -115.125 183.3125 -113.125 182.3125 C-112.70115395 177.789701 -112.70115395 177.789701 -115.0078125 174.0234375 C-117.42057977 170.93402702 -118.22809169 168.39060333 -119.25 164.625 C-120.37535483 160.00332261 -120.37535483 160.00332261 -123.125 156.3125 C-123.81540574 154.65552621 -124.4780635 152.9869239 -125.125 151.3125 C-125.599375 150.384375 -126.07375 149.45625 -126.5625 148.5 C-128.64853904 144.24448036 -130.66709779 139.81749442 -131.5234375 135.1328125 C-131.72195312 134.53210938 -131.92046875 133.93140625 -132.125 133.3125 C-133.115 132.9825 -134.105 132.6525 -135.125 132.3125 C-132.11147125 116.92523957 -132.11147125 116.92523957 -126.125 111.5 C-121.79916702 108.93153667 -117.07387587 108.67480456 -112.125 109.3125 C-106.2833662 111.19516283 -102.43999947 114.18931901 -99.125 119.3125 C-98.3125 123.1875 -98.3125 123.1875 -98.125 126.3125 C-97.135 126.6425 -96.145 126.9725 -95.125 127.3125 C-93.97183392 129.52222988 -93.01278982 131.63954417 -92.09375 133.9453125 C-91.81656128 134.61537323 -91.53937256 135.28543396 -91.25378418 135.97579956 C-90.36713725 138.12560318 -89.49586297 140.28126059 -88.625 142.4375 C-88.03877966 143.86760573 -87.4515513 145.2972987 -86.86328125 146.7265625 C-85.77294489 149.377839 -84.68937092 152.03169257 -83.61132812 154.68798828 C-82.15202943 158.2465869 -80.64941774 161.78146235 -79.125 165.3125 C-73.93992554 164.44451397 -68.78828176 163.48347586 -63.66796875 162.2890625 C-62.8879248 162.10827148 -62.10788086 161.92748047 -61.30419922 161.74121094 C-59.75847876 161.37957549 -58.21441946 161.01074352 -56.67236328 160.63378906 C-55.94130371 160.46331055 -55.21024414 160.29283203 -54.45703125 160.1171875 C-53.81483643 159.96233887 -53.1726416 159.80749023 -52.51098633 159.64794922 C-49.04159463 159.16018249 -45.62823014 159.29342713 -42.125 159.3125 C-42.1398916 147.84628473 -42.18156059 136.38050579 -42.25709057 124.91452026 C-42.29133085 119.58992925 -42.31646598 114.26562427 -42.32055664 108.94091797 C-42.32484588 103.79890205 -42.3533609 98.65753104 -42.39843178 93.51571655 C-42.41138672 91.55744182 -42.41572158 89.59908984 -42.41115379 87.64077759 C-42.40623354 84.89002488 -42.43240261 82.14114677 -42.46557617 79.390625 C-42.45695053 78.58717148 -42.44832489 77.78371796 -42.43943787 76.95591736 C-42.54783703 71.5679863 -43.90835724 68.31585949 -47.05443287 63.93865967 C-48.125 62.3125 -48.125 62.3125 -48.125 60.3125 C-48.8675 60.085625 -49.61 59.85875 -50.375 59.625 C-56.31029849 56.7922439 -58.0985579 51.41788039 -60.390625 45.6171875 C-61.125 43.3125 -61.125 43.3125 -61.125 40.3125 C-61.785 40.3125 -62.445 40.3125 -63.125 40.3125 C-63.61951577 29.81777645 -62.36037969 20.5367404 -57.125 11.3125 C-56.135 11.3125 -55.145 11.3125 -54.125 11.3125 C-54.063125 10.77625 -54.00125 10.24 -53.9375 9.6875 C-51.40282967 2.27846365 -44.78724656 -1.31364737 -38.20703125 -4.6640625 C-25.64481621 -9.86389619 -10.90836537 -7.54547817 0 0 Z M-105.82421875 218.83984375 C-107.45600803 220.35976504 -107.45600803 220.35976504 -107.125 223.3125 C-107.84042969 223.39371094 -108.55585938 223.47492188 -109.29296875 223.55859375 C-114.85731914 225.0398622 -118.8891964 229.56937143 -123.125 233.3125 C-124.13240234 234.19228516 -124.13240234 234.19228516 -125.16015625 235.08984375 C-148.55111759 256.99093494 -159.06254605 285.01083664 -164.64770508 315.71972656 C-164.95834705 317.40720369 -165.29818191 319.08965188 -165.67138672 320.7644043 C-168.64037934 337.44221701 -166.68176483 356.09704521 -162.125 372.3125 C-161.8995752 373.14088379 -161.67415039 373.96926758 -161.44189453 374.82275391 C-155.43456941 396.30312148 -145.3385284 415.94636829 -130.125 432.3125 C-129.4954541 432.99425293 -128.8659082 433.67600586 -128.21728516 434.37841797 C-119.6450962 443.55127351 -110.76783218 451.6277459 -100.125 458.3125 C-99.55571777 458.67279297 -98.98643555 459.03308594 -98.39990234 459.40429688 C-84.95928239 467.78621155 -70.57876033 472.97309372 -55.28027344 476.77636719 C-53.33041086 477.26140323 -51.38736789 477.77365502 -49.4453125 478.2890625 C-30.53729287 482.63994014 -8.94091827 482.00161372 9.875 477.3125 C10.66100586 477.11914062 11.44701172 476.92578125 12.25683594 476.7265625 C34.15256421 471.15154014 53.88882088 461.28413227 70.875 446.3125 C71.52307617 445.74354004 72.17115234 445.17458008 72.83886719 444.58837891 C82.88715617 435.67994415 91.5953353 426.61855528 98.875 415.3125 C99.58914063 414.219375 100.30328125 413.12625 101.0390625 412 C112.70212276 392.90680483 120.51746804 368.76039971 120.875 346.3125 C120.89401367 345.45930176 120.91302734 344.60610352 120.93261719 343.72705078 C121.44095863 318.62248357 117.96759842 296.63995401 107.25 273.6875 C106.71040649 272.52492676 106.71040649 272.52492676 106.15991211 271.33886719 C103.96130686 266.85469208 101.56799318 263.7555444 97.875 260.3125 C96.5625 257.5 96.5625 257.5 95.875 255.3125 C95.215 255.3125 94.555 255.3125 93.875 255.3125 C93.79765625 254.28382813 93.79765625 254.28382813 93.71875 253.234375 C92.53872165 249.14798053 90.17843409 246.69223263 87.375 243.5625 C86.83327148 242.94632813 86.29154297 242.33015625 85.73339844 241.6953125 C75.84892715 230.31497444 75.84892715 230.31497444 63.875 221.3125 C62.885 221.3125 61.895 221.3125 60.875 221.3125 C60.545 220.3225 60.215 219.3325 59.875 218.3125 C57.84046357 216.49594962 56.06549918 215.38642506 53.51953125 214.3984375 C50.8904976 213.31886386 48.70120351 212.03184201 46.3125 210.5 C40.74082539 207.09554904 34.94244735 204.68562088 28.875 202.3125 C28.14152344 201.99023438 27.40804687 201.66796875 26.65234375 201.3359375 C21.60446839 199.18833247 17.24904925 198.97662192 11.875 199.3125 C11.875 198.6525 11.875 197.9925 11.875 197.3125 C-27.20841186 186.90264952 -73.54479482 193.32969707 -105.82421875 218.83984375 Z " fill="#10B981" transform="translate(360.125,6.6875)"/>
</svg>
