<?xml version="1.0" encoding="utf-8"?>
<svg xmlns="http://www.w3.org/2000/svg" width="93" height="32" viewBox="0 0 32 32" fill="none">
<path d="M49.7397 9.49987C50.9607 10.7202 50.9607 12.7061 49.7397 13.9264L47.0045 16.6159L46.9767 16.4618C46.777 15.3564 46.2512 14.3534 45.4574 13.5601C44.8596 12.9638 44.153 12.5229 43.3567 12.25C42.8625 12.7465 42.5907 13.3971 42.5907 14.0818C42.5907 14.2207 42.6034 14.3648 42.6287 14.5088C43.0672 14.6667 43.4553 14.9105 43.7814 15.2364C45.0024 16.4568 45.0024 18.4426 43.7814 19.663L41.4001 22.043C40.7896 22.6531 39.9882 22.9576 39.1856 22.9576C38.383 22.9576 37.5816 22.6531 36.9711 22.043C35.7501 20.8227 35.7501 18.8368 36.9711 17.6164L39.7064 14.9282L39.7342 15.0823C39.9326 16.1851 40.4584 17.1882 41.2547 17.9828C41.8538 18.5816 42.5174 18.9795 43.3125 19.2511L43.4591 19.1046C43.904 18.6599 44.1479 18.0687 44.1479 17.4383C44.1479 17.2981 44.1353 17.1579 44.1113 17.0202C43.6525 16.8686 43.2745 16.6526 42.9307 16.309C42.4353 15.8137 42.1269 15.1808 42.0409 14.4797C42.0346 14.4292 42.0308 14.3799 42.0257 14.3294C41.9575 13.416 42.2874 12.5242 42.9307 11.8824L45.3121 9.50239C45.9023 8.91244 46.6885 8.58652 47.5265 8.58652C48.3645 8.58652 49.1507 8.91118 49.741 9.50239L49.7397 9.49987ZM62.1747 15.791C62.1747 24.4988 55.0863 31.582 46.3751 31.582H15.7996C7.08834 31.582 0 24.4988 0 15.791C0 7.08321 7.08834 0 15.7996 0H46.3751C55.0876 0 62.1747 7.08448 62.1747 15.791ZM30.449 23.7105C30.698 23.4086 29.5478 22.5584 29.3127 22.2464C28.8349 21.7284 28.8324 20.9831 28.5101 20.378C27.7214 18.5513 26.8151 16.7385 25.5474 15.1922C24.2076 13.5007 22.5543 12.101 21.102 10.513C20.0238 9.40512 19.7356 7.82728 18.7839 6.63601C17.4719 4.6994 13.3235 4.17135 12.7155 6.90635C12.7181 6.99226 12.6915 7.04658 12.6169 7.1009C12.2807 7.34471 11.9812 7.6239 11.7296 7.96119C11.1141 8.8177 11.0193 10.2705 11.7878 11.0398C11.8131 10.6343 11.827 10.2515 12.148 9.96097C12.7421 10.4701 13.6395 10.6507 14.3284 10.2705C15.8502 12.442 15.471 15.4461 16.6793 17.7857C17.013 18.339 17.3493 18.9037 17.7777 19.3888C18.1253 19.9295 19.3261 20.5675 19.3969 21.0677C19.4095 21.9268 19.3084 22.8654 19.8721 23.5842C20.1376 24.1223 19.4854 24.663 18.9595 24.5961C18.277 24.6896 17.444 24.1375 16.8462 24.4773C16.6351 24.706 16.2218 24.4533 16.0398 24.7704C15.9766 24.9346 15.6353 25.1658 15.8388 25.3237C16.0651 25.1519 16.2749 24.9725 16.5795 25.0749C16.534 25.3225 16.7299 25.3578 16.8854 25.4298C16.8803 25.5979 16.7817 25.7697 16.9107 25.9124C17.0611 25.7608 17.1508 25.5461 17.3897 25.4829C18.1835 26.5403 18.9911 24.4129 20.7089 25.3705C20.36 25.3528 20.0504 25.397 19.8153 25.6838C19.7571 25.7482 19.7078 25.824 19.8102 25.9074C20.7367 25.3098 20.7316 26.112 21.3333 25.8657C21.7959 25.6244 22.256 25.3225 22.8058 25.4084C22.2712 25.5625 22.2497 25.992 21.9362 26.3546C21.8831 26.4101 21.8578 26.4733 21.9198 26.5655C23.0295 26.472 23.1205 26.1032 24.0167 25.6509C24.6853 25.2429 25.3514 26.232 25.9303 25.6686C26.058 25.5461 26.2324 25.5877 26.3904 25.5713C26.1882 24.4937 23.9649 25.7684 24.0003 24.3232C24.7157 23.8368 24.5514 22.9058 24.5994 22.1541C25.4222 22.6102 26.3373 22.8755 27.1438 23.3113C27.5508 23.9682 28.1891 24.8361 29.0397 24.7792C29.0625 24.7136 29.0827 24.6554 29.1067 24.5885C29.3646 24.6327 29.6957 24.8032 29.8373 24.4773C30.2228 24.8803 30.789 24.8601 31.2934 24.7565C31.6662 24.4533 30.5919 24.0213 30.4478 23.7092L30.449 23.7105ZM53.0248 11.7131C53.0248 10.2427 52.4535 8.86191 51.4158 7.82476C50.3781 6.78761 48.9965 6.2166 47.524 6.2166C46.0515 6.2166 44.67 6.78761 43.6322 7.82476L41.2509 10.2048C40.6948 10.7606 40.2726 11.4137 39.9958 12.1452L39.9794 12.1869L39.9364 12.1995C39.0718 12.4661 38.3097 12.9234 37.6714 13.5613L35.29 15.9413C33.1451 18.0864 33.1451 21.5756 35.29 23.7194C36.3278 24.7565 37.7093 25.3275 39.1805 25.3275C40.6518 25.3275 42.0346 24.7565 43.0723 23.7194L45.4536 21.3393C46.0072 20.786 46.4269 20.1354 46.7037 19.4053L46.7201 19.3636L46.7631 19.3497C47.6125 19.0894 48.3961 18.617 49.0319 17.9828L51.4132 15.6028C52.451 14.5656 53.0223 13.1849 53.0223 11.7131H53.0248ZM21.7883 21.9305C21.5836 22.7289 21.5166 24.0895 20.4776 24.1287C20.3916 24.5898 20.7974 24.7628 21.1652 24.615C21.5305 24.447 21.7036 24.7477 21.8262 25.0471C22.39 25.1292 23.2242 24.8588 23.2558 24.1918C22.414 23.7067 22.1536 22.7845 21.7871 21.9305H21.7883Z" fill="#F8F7FF"/>
</svg>